<svg xmlns="http://www.w3.org/2000/svg" width="926" height="170" viewBox="0 0 170 170" fill="none"><path xmlns="http://www.w3.org/2000/svg" d="M134.643 40.3068C132.311 38.3551 129.838 36.5701 127.253 34.9561C126.867 34.7149 126.485 34.4737 126.095 34.2456C126.292 34.4825 126.49 34.7193 126.682 34.9561C114.692 20.334 96.6992 11.0361 76.5846 11.0361C40.4881 11.0361 11.2251 40.9734 11.2251 77.9016C11.2251 101.712 23.3916 122.61 41.7099 134.456V134.487H41.7571C42.4773 134.952 43.2018 135.403 43.9392 135.838C43.892 135.811 43.8448 135.785 43.7977 135.754C55.7841 149.969 73.5194 158.964 93.3082 158.964C129.405 158.964 158.668 129.027 158.668 92.0984C158.668 71.2133 149.305 52.565 134.643 40.3024V40.3068ZM123.193 42.3549C130.429 52.2712 134.716 64.5733 134.716 77.9016C134.716 78.9674 134.686 80.0243 134.635 81.0725L96.7892 42.3549H123.193V42.3549ZM54.0822 85.5548H85.0429L118.173 119.444C112.981 124.882 106.778 129.307 99.8716 132.399L54.0779 85.5504L54.0822 85.5548ZM92.3436 135.158C87.3321 136.601 82.0463 137.373 76.5846 137.373C66.5788 137.373 57.1602 134.785 48.9378 130.228V90.7519L92.3436 135.158V135.158ZM90.9803 81.169V46.8767L133.443 90.3177C131.638 99.0103 127.981 106.997 122.91 113.83L90.9846 81.169H90.9803ZM18.453 77.9016C18.4573 45.0566 44.4793 18.4349 76.5846 18.4349C92.1893 18.4349 106.354 24.7241 116.797 34.9605H83.7525V78.1604H41.7099V125.483C27.5886 114.632 18.4573 97.3613 18.4573 77.9016H18.453ZM149.626 106.874C143.205 132.575 120.423 151.574 93.3039 151.574C82.6764 151.574 72.7135 148.657 64.1395 143.561C63.998 143.535 63.8565 143.5 63.7151 143.473C67.8734 144.324 72.1776 144.771 76.5803 144.771C84.1212 144.771 91.3619 143.46 98.101 141.057C100.575 140.175 102.984 139.145 105.312 137.974C112.029 134.605 118.1 130.088 123.279 124.676C124.968 122.908 126.567 121.053 128.059 119.106C133.16 112.444 137.053 104.764 139.398 96.4183C140.182 93.6246 140.795 90.7563 141.22 87.8222C141.691 84.5855 141.936 81.2743 141.936 77.906C141.936 68.7047 137.207 52.8852 137.387 53.3501C146.137 63.7575 151.427 77.3008 151.427 92.1071C151.427 94.0895 151.328 96.0456 151.144 97.9797C150.853 101.019 150.338 103.993 149.618 106.878L149.626 106.874Z" fill="black"/></svg>