<svg width="926" height="170" viewBox="0 0 926 170" fill="none" xmlns="http://www.w3.org/2000/svg">
<path d="M134.643 40.3068C132.311 38.3551 129.838 36.5701 127.253 34.9561C126.867 34.7149 126.485 34.4737 126.095 34.2456C126.292 34.4825 126.49 34.7193 126.682 34.9561C114.692 20.334 96.6992 11.0361 76.5846 11.0361C40.4881 11.0361 11.2251 40.9734 11.2251 77.9016C11.2251 101.712 23.3916 122.61 41.7099 134.456V134.487H41.7571C42.4773 134.952 43.2018 135.403 43.9392 135.838C43.892 135.811 43.8448 135.785 43.7977 135.754C55.7841 149.969 73.5194 158.964 93.3082 158.964C129.405 158.964 158.668 129.027 158.668 92.0984C158.668 71.2133 149.305 52.565 134.643 40.3024V40.3068ZM123.193 42.3549C130.429 52.2712 134.716 64.5733 134.716 77.9016C134.716 78.9674 134.686 80.0243 134.635 81.0725L96.7892 42.3549H123.193V42.3549ZM54.0822 85.5548H85.0429L118.173 119.444C112.981 124.882 106.778 129.307 99.8716 132.399L54.0779 85.5504L54.0822 85.5548ZM92.3436 135.158C87.3321 136.601 82.0463 137.373 76.5846 137.373C66.5788 137.373 57.1602 134.785 48.9378 130.228V90.7519L92.3436 135.158V135.158ZM90.9803 81.169V46.8767L133.443 90.3177C131.638 99.0103 127.981 106.997 122.91 113.83L90.9846 81.169H90.9803ZM18.453 77.9016C18.4573 45.0566 44.4793 18.4349 76.5846 18.4349C92.1893 18.4349 106.354 24.7241 116.797 34.9605H83.7525V78.1604H41.7099V125.483C27.5886 114.632 18.4573 97.3613 18.4573 77.9016H18.453ZM149.626 106.874C143.205 132.575 120.423 151.574 93.3039 151.574C82.6764 151.574 72.7135 148.657 64.1395 143.561C63.998 143.535 63.8565 143.5 63.7151 143.473C67.8734 144.324 72.1776 144.771 76.5803 144.771C84.1212 144.771 91.3619 143.46 98.101 141.057C100.575 140.175 102.984 139.145 105.312 137.974C112.029 134.605 118.1 130.088 123.279 124.676C124.968 122.908 126.567 121.053 128.059 119.106C133.16 112.444 137.053 104.764 139.398 96.4183C140.182 93.6246 140.795 90.7563 141.22 87.8222C141.691 84.5855 141.936 81.2743 141.936 77.906C141.936 68.7047 137.207 52.8852 137.387 53.3501C146.137 63.7575 151.427 77.3008 151.427 92.1071C151.427 94.0895 151.328 96.0456 151.144 97.9797C150.853 101.019 150.338 103.993 149.618 106.878L149.626 106.874Z" fill="black"/>
<path d="M203.171 123.447V46.5524H220.187L251.475 106.421H253.67V46.5524H265.197V123.447H248.181L216.894 63.5791H214.698V123.447H203.171Z" fill="black"/>
<path d="M346.747 113.451C339.648 120.848 330.938 124.546 320.619 124.546C310.3 124.546 301.591 120.848 294.491 113.451C287.392 106.054 283.843 96.5707 283.843 84.9999C283.843 73.429 287.392 63.9453 294.491 56.5487C301.591 49.1521 310.3 45.4539 320.619 45.4539C330.938 45.4539 339.648 49.1521 346.747 56.5487C353.846 63.9453 357.395 73.429 357.395 84.9999C357.395 96.5707 353.846 106.054 346.747 113.451ZM338.733 64.2382C333.976 59.0386 327.938 56.4389 320.619 56.4389C313.3 56.4389 307.262 59.0386 302.505 64.2382C297.748 69.4378 295.37 76.3583 295.37 84.9999C295.37 93.6414 297.748 100.562 302.505 105.762C307.262 110.961 313.3 113.561 320.619 113.561C327.938 113.561 333.976 110.961 338.733 105.762C343.49 100.562 345.869 93.6414 345.869 84.9999C345.869 76.3583 343.49 69.4378 338.733 64.2382Z" fill="black"/>
<path d="M376.032 123.447V46.5524H393.048L424.336 106.421H426.531V46.5524H438.058V123.447H421.042L389.755 63.5791H387.559V123.447H376.032Z" fill="black"/>
<path d="M456.704 97.0834V87.1969H492.931V97.0834H456.704Z" fill="black"/>
<path d="M524.232 123.447V57.5374H500.08V46.5524H559.91V57.5374H535.758V123.447H524.232Z" fill="black"/>
<path d="M575.824 123.447V46.5524H610.405C616.845 46.5524 622.188 48.8592 626.433 53.4729C630.751 58.0134 632.91 63.9453 632.91 71.2686C632.91 78.5919 630.751 84.5605 626.433 89.1742C622.188 93.7146 616.845 95.9849 610.405 95.9849H607.66L635.105 123.447H620.285L592.84 95.9849H587.351V123.447H575.824ZM587.351 84.9999H609.856C613.003 84.9999 615.711 83.7183 617.98 81.1551C620.248 78.5919 621.383 75.2964 621.383 71.2686C621.383 67.2408 620.248 63.9453 617.98 61.3821C615.711 58.8189 613.003 57.5374 609.856 57.5374H587.351V84.9999Z" fill="black"/>
<path d="M652.713 123.447V46.5524H664.24V123.447H652.713Z" fill="black"/>
<path d="M705.395 123.447L678.499 46.5524H691.123L713.079 110.265H715.275L737.231 46.5524H749.856L722.96 123.447H705.395Z" fill="black"/>
<path d="M764.144 123.447V46.5524H775.671V123.447H764.144Z" fill="black"/>
<path d="M789.381 123.447L817.375 46.5524H834.94L862.934 123.447H850.309L843.722 105.322H808.593L802.006 123.447H789.381ZM812.435 94.8864H839.88L827.255 59.7344H825.06L812.435 94.8864Z" fill="black"/>
<path d="M876.648 123.447V46.5524H888.175V112.462H925.5V123.447H876.648Z" fill="black"/>
</svg>
