<svg width="165" height="51" viewBox="0 0 165 51" fill="none" xmlns="http://www.w3.org/2000/svg">
<path d="M30.3227 13.6182L37.7944 0.285156L39.0758 1.00428L28.4061 20.0423L29.4904 4.34935L30.9561 4.45061L30.3227 13.6182ZM10.2699 12.9712L23.3019 21.7586L12.1694 2.98918L10.9068 3.74006L18.7025 16.8843L11.0894 11.7517L10.2691 12.9703L10.2699 12.9712ZM30.9278 29.9642L42.0595 48.7336L43.3229 47.9836L35.5247 34.8376L43.1386 39.9702L43.958 38.7499L30.927 29.9642H30.9278ZM0.339127 27.5108L15.609 27.4558L7.32909 31.4188L7.96252 32.7455L21.933 26.0579L0.333984 26.0408L0.339127 27.5108ZM52.2209 24.4068H31.2638L44.7243 17.5502L45.4512 19.0383L37.5252 22.9171L52.2037 22.966L52.2209 24.4068ZM14.2899 49.566L15.5713 50.2852L23.043 36.9521L22.4104 46.1188L23.8753 46.2218L24.9596 30.5272L14.2899 49.566ZM26.3087 23.2878L19.6247 9.15583L20.9439 8.51051L24.9724 16.7659L24.8319 1.4591H26.3087V23.2878ZM27.3184 49.1121H28.7867V33.7941L32.9447 42.0581L34.2647 41.4128L27.3184 27.4533V49.1121ZM24.4487 24.1099H9.19851L9.20965 22.8073L18.6262 22.809L5.24196 15.0882L5.94224 13.8396L24.4487 24.1099ZM29.0018 26.5153L48.0166 36.9839L48.734 35.7018L34.4875 27.6978H44.5958L44.5838 26.5153H29.001H29.0018ZM16.7028 39.3498L15.4856 38.5285L20.6113 30.9065L7.48081 38.713L6.73081 37.4481L25.4781 26.3025L16.7028 39.3498ZM37.1824 10.673L28.407 23.7203L47.1543 12.5756L46.4043 11.3106L33.273 19.1172L38.4012 11.4951L37.1824 10.673Z" fill="#1C3658"/>
<path fill-rule="evenodd" clip-rule="evenodd" d="M63.9552 19.0998C62.8675 19.0998 61.8707 18.9118 60.9655 18.536C60.0604 18.1592 59.2753 17.6392 58.6101 16.9741C57.9458 16.3091 57.429 15.5153 57.0596 14.5954C56.691 13.6754 56.5059 12.6783 56.5059 11.6021C56.5059 10.5277 56.6901 9.53056 57.0596 8.60891C57.429 7.68898 57.9458 6.89605 58.611 6.23184C59.2753 5.56592 60.0604 5.04502 60.9655 4.67001C61.8707 4.29329 62.8684 4.10449 63.9552 4.10449C65.0438 4.10449 66.0381 4.29328 66.9441 4.66915C67.8509 5.04502 68.6361 5.56592 69.3012 6.23098C69.9646 6.89605 70.4806 7.68984 70.8501 8.60891C71.2195 9.53056 71.4038 10.5277 71.4038 11.6021C71.4038 12.6783 71.2195 13.6754 70.8501 14.5954C70.4815 15.5153 69.9646 16.3091 69.3004 16.9741C68.6361 17.6392 67.8518 18.1592 66.9441 18.536C66.0381 18.9118 65.043 19.0998 63.9552 19.0998ZM63.9552 17.5294C64.7875 17.5294 65.5495 17.3732 66.2404 17.066C66.9312 16.757 67.5261 16.3322 68.0215 15.7942C68.5187 15.257 68.9044 14.6297 69.1795 13.9106C69.4546 13.1914 69.5926 12.4225 69.5926 11.6021C69.5926 10.7835 69.4555 10.0146 69.1795 9.29457C68.9052 8.57544 68.5195 7.94728 68.0224 7.41008C67.5252 6.87288 66.9312 6.44981 66.2404 6.14002C65.5487 5.83109 64.7875 5.67662 63.9552 5.67662C63.1221 5.67662 62.3618 5.83109 61.6701 6.14002C60.9784 6.44981 60.3844 6.87288 59.8881 7.41008C59.3918 7.94728 59.0061 8.57544 58.731 9.29457C58.4567 10.0137 58.3178 10.7835 58.3178 11.603C58.3178 12.4225 58.4558 13.1914 58.731 13.9114C59.0061 14.6297 59.3918 15.257 59.8881 15.7942C60.3853 16.3322 60.9784 16.7562 61.671 17.0651C62.3618 17.374 63.1221 17.5285 63.9552 17.5285V17.5294ZM73.2912 9.30487H74.8615V10.6762H74.9009C75.3295 10.1647 75.8309 9.76827 76.4009 9.48594C76.9718 9.20447 77.5992 9.06373 78.2832 9.06373C79.0229 9.06373 79.6966 9.1873 80.306 9.43531C80.9172 9.68417 81.4374 10.0309 81.866 10.4737C82.2963 10.9173 82.6323 11.4408 82.874 12.0458C83.1157 12.6499 83.2357 13.309 83.2357 14.0213C83.2357 14.7335 83.1157 15.3917 82.874 15.9967C82.6323 16.6008 82.2997 17.1252 81.8772 17.5688C81.4546 18.0116 80.954 18.3583 80.3772 18.6072C79.8003 18.8561 79.1832 18.9796 78.5249 18.9796C77.6806 18.9796 76.9375 18.7951 76.3006 18.4253C75.6638 18.0563 75.1966 17.6023 74.9009 17.0642H74.8615V23.3339H73.2912V9.30487ZM74.8615 14.0213C74.8615 14.519 74.9386 14.9781 75.0929 15.4012C75.2472 15.8251 75.4718 16.1941 75.7675 16.5099C76.0623 16.8274 76.4146 17.0745 76.8243 17.2565C77.234 17.4375 77.6935 17.5276 78.2035 17.5276C78.7135 17.5276 79.172 17.4375 79.5817 17.2565C79.9915 17.0745 80.3446 16.8274 80.6395 16.5099C80.9343 16.1941 81.1597 15.8251 81.3132 15.4012C81.4674 14.9781 81.5446 14.5181 81.5446 14.0213C81.5446 13.5244 81.4674 13.0636 81.3132 12.6405C81.1589 12.2183 80.9343 11.8476 80.6395 11.5318C80.3446 11.2168 79.9915 10.9671 79.5817 10.786C79.1729 10.6058 78.7135 10.5131 78.2035 10.5131C77.6935 10.5131 77.234 10.605 76.8235 10.786C76.4146 10.9671 76.0623 11.2168 75.7675 11.5326C75.4718 11.8476 75.2472 12.2191 75.0929 12.6405C74.9386 13.0636 74.8615 13.5244 74.8615 14.0221V14.0213ZM93.6182 17.0239C93.0551 17.7499 92.4371 18.2571 91.7668 18.5454C91.0948 18.8346 90.3165 18.9796 89.4311 18.9796C88.6923 18.9796 88.0288 18.8483 87.4383 18.5857C86.8468 18.324 86.348 17.9713 85.9383 17.5285C85.5286 17.084 85.214 16.5614 84.9929 15.9555C84.77 15.3514 84.6586 14.7069 84.6586 14.0213C84.6586 13.2953 84.7803 12.6268 85.022 12.0158C85.2637 11.4048 85.5989 10.8804 86.0291 10.4436C86.4586 10.0068 86.9686 9.66787 87.5591 9.42587C88.1488 9.18301 88.7934 9.06287 89.492 9.06287C90.1494 9.06287 90.7537 9.17443 91.3031 9.39583C91.8534 9.61724 92.3265 9.9399 92.7225 10.363C93.1177 10.7852 93.4237 11.3035 93.638 11.9162C93.8531 12.5272 93.9611 13.2215 93.9611 14.0015V14.5044H86.3506C86.378 14.9077 86.4748 15.2939 86.6428 15.6637C86.81 16.0336 87.0286 16.3563 87.2968 16.6309C87.5651 16.9063 87.8814 17.1243 88.2431 17.2865C88.6057 17.447 89.0017 17.5285 89.4311 17.5285C90.116 17.5285 90.692 17.4066 91.1625 17.1655C91.6314 16.9235 92.0548 16.5682 92.4311 16.0971L93.6182 17.0239ZM92.27 13.1751C92.2425 12.3685 91.9811 11.7223 91.484 11.24C90.9877 10.7551 90.3028 10.514 89.4311 10.514C88.5586 10.514 87.8531 10.7551 87.3166 11.24C86.78 11.7223 86.4586 12.3685 86.3506 13.1751H92.27ZM95.6934 11.5429C95.6934 11.1121 95.6797 10.7088 95.6531 10.3329C95.6265 9.95535 95.6128 9.61466 95.6128 9.30573H97.1034C97.1034 9.55974 97.1094 9.81547 97.1231 10.0712C97.1368 10.3269 97.1428 10.5895 97.1428 10.8564H97.1822C97.2911 10.629 97.4419 10.4076 97.6365 10.1913C97.8311 9.9768 98.0625 9.78543 98.3308 9.61809C98.5991 9.45076 98.9008 9.31431 99.2359 9.21476C99.5719 9.1135 99.9345 9.06287 100.324 9.06287C100.941 9.06287 101.475 9.15727 101.925 9.3452C102.374 9.534 102.747 9.79659 103.042 10.1313C103.336 10.4677 103.555 10.8744 103.696 11.3498C103.837 11.8287 103.907 12.3487 103.907 12.9134V18.7385H102.337V13.0739C102.337 12.2809 102.162 11.6571 101.814 11.1997C101.464 10.7431 100.921 10.5149 100.183 10.5149C99.6731 10.5149 99.2334 10.6007 98.8639 10.7757C98.4954 10.9517 98.1936 11.1997 97.9579 11.5223C97.7231 11.845 97.5491 12.2277 97.4351 12.6705C97.3202 13.1142 97.2637 13.605 97.2637 14.1423V18.7385H95.6934V11.5429ZM56.5067 27.5714H60.735C61.3915 27.5714 62.019 27.6358 62.6164 27.7636C63.2138 27.8906 63.7435 28.106 64.2072 28.4072C64.6701 28.7102 65.0387 29.1135 65.313 29.6172C65.5898 30.1218 65.727 30.7431 65.727 31.482C65.727 32.2612 65.5795 32.9065 65.2847 33.4171C64.989 33.9269 64.6101 34.3302 64.1464 34.6262C63.6835 34.9214 63.177 35.1308 62.6275 35.251C62.0773 35.3711 61.5535 35.4312 61.0564 35.4312H58.1979V41.8416H56.5067V27.5705V27.5714ZM58.1979 33.8599H61.0564C61.9024 33.8599 62.5898 33.6686 63.1204 33.285C63.6501 32.9031 63.9158 32.3084 63.9158 31.5026C63.9158 30.6959 63.6501 30.1012 63.1204 29.7176C62.589 29.3349 61.9024 29.1427 61.0564 29.1427H58.1979V33.8599ZM67.4601 26.6043H69.0304V33.7183H69.0698C69.1778 33.5295 69.3252 33.3459 69.5138 33.1648C69.7015 32.9837 69.9252 32.819 70.1884 32.6705C70.4498 32.5229 70.7421 32.4019 71.0626 32.3075C71.3858 32.2131 71.7278 32.1668 72.0904 32.1668C72.7075 32.1668 73.2415 32.2612 73.6915 32.4491C74.1406 32.6371 74.5135 32.8997 74.8083 33.236C75.1032 33.5707 75.3218 33.9775 75.4623 34.4546C75.6038 34.9317 75.674 35.4526 75.674 36.0164V41.8416H74.1038V36.1778C74.1038 35.3848 73.9289 34.7601 73.5809 34.3036C73.2295 33.847 72.6869 33.6171 71.9498 33.6171C71.4398 33.6171 71.0001 33.7055 70.6298 33.8805C70.2612 34.0556 69.9604 34.3036 69.7246 34.6262C69.4898 34.9489 69.3158 35.3316 69.2009 35.7753C69.0869 36.2181 69.0295 36.709 69.0295 37.2453V41.8416H67.4601V26.6043ZM77.9626 28.7196C77.9626 28.4124 78.0732 28.1429 78.2952 27.9138C78.5163 27.6855 78.788 27.5705 79.1095 27.5705C79.4326 27.5705 79.7043 27.6864 79.9263 27.9138C80.1466 28.1429 80.2572 28.4115 80.2572 28.7205C80.2572 29.0569 80.15 29.3315 79.9357 29.546C79.7206 29.7623 79.4455 29.8695 79.1103 29.8695C78.7743 29.8695 78.4992 29.7623 78.2849 29.546C78.0697 29.3315 77.9626 29.0569 77.9626 28.7196ZM78.3252 41.8407H79.8955V32.4079H78.3243V41.8407H78.3252ZM83.1569 41.8416H84.7271V26.6043H83.1569V41.8416ZM87.4923 33.6179C87.974 33.1202 88.5491 32.7555 89.2126 32.5195C89.8777 32.2852 90.5523 32.1677 91.2371 32.1677C92.6325 32.1677 93.6388 32.4963 94.256 33.1545C94.8731 33.8127 95.1825 34.8142 95.1825 36.158V40.2094C95.1825 40.478 95.1954 40.7569 95.2228 41.0452C95.2494 41.3344 95.2828 41.5987 95.3231 41.8407H93.8137C93.7597 41.6262 93.7288 41.3876 93.7228 41.125C93.716 40.8641 93.7125 40.6316 93.7125 40.4299H93.6722C93.3637 40.9139 92.9505 41.3104 92.4345 41.6193C91.9177 41.9282 91.2963 42.0827 90.572 42.0827C90.0894 42.0827 89.636 42.0226 89.2126 41.9025C88.7908 41.7806 88.4214 41.6038 88.1051 41.3679C87.7906 41.1336 87.5394 40.841 87.3517 40.4908C87.1631 40.1416 87.0688 39.7382 87.0688 39.2817C87.0688 38.5016 87.2703 37.8898 87.6731 37.447C88.076 37.0042 88.5757 36.6746 89.1731 36.4601C89.7697 36.2456 90.4143 36.1108 91.106 36.0568C91.7968 36.0027 92.4302 35.9761 93.008 35.9761H93.6122V35.6929C93.6122 35.009 93.4074 34.4915 92.9977 34.1422C92.5888 33.793 92.0145 33.6179 91.2774 33.6179C90.7665 33.6179 90.266 33.7029 89.7774 33.8702C89.2863 34.0384 88.8543 34.2976 88.478 34.646L87.4923 33.6171V33.6179ZM92.042 37.3054C91.0348 37.3054 90.2368 37.4478 89.6463 37.7302C89.0548 38.0116 88.76 38.475 88.76 39.1204C88.76 39.7125 88.958 40.1313 89.3548 40.3801C89.75 40.629 90.2428 40.7526 90.8343 40.7526C91.2903 40.7526 91.6897 40.6753 92.0317 40.5209C92.3737 40.3664 92.6591 40.1622 92.8871 39.9064C93.116 39.6516 93.29 39.3529 93.4108 39.0105C93.5317 38.6673 93.5985 38.3008 93.6122 37.9104V37.3054H92.042ZM97.8277 34.646C97.8277 34.2161 97.8131 33.8127 97.7865 33.4377C97.7599 33.0601 97.7462 32.7186 97.7462 32.4079H99.2368C99.2368 32.6637 99.2428 32.9194 99.2565 33.1751C99.2694 33.4308 99.2771 33.6926 99.2771 33.9603H99.3174C99.4236 33.7329 99.5754 33.5115 99.7699 33.2953C99.9645 33.0807 100.196 32.8894 100.464 32.7203C100.732 32.5538 101.035 32.4182 101.37 32.317C101.705 32.2174 102.068 32.1668 102.457 32.1668C103.075 32.1668 103.609 32.2612 104.058 32.4491C104.507 32.6371 104.88 32.8997 105.175 33.2352C105.471 33.5716 105.688 33.9783 105.83 34.4538C105.97 34.9317 106.041 35.4526 106.041 36.0173V41.8416H104.47V36.1769C104.47 35.3848 104.296 34.7601 103.947 34.3036C103.598 33.8462 103.054 33.6171 102.316 33.6171C101.806 33.6171 101.367 33.7055 100.997 33.8797C100.629 34.0556 100.327 34.3036 100.092 34.6262C99.8574 34.9489 99.6825 35.3316 99.5694 35.7744C99.4545 36.2181 99.3971 36.709 99.3971 37.2462V41.8416H97.8277V34.646ZM113.705 33.7389H110.926V38.4553C110.926 38.7634 110.933 39.0491 110.947 39.3117C110.96 39.5735 111.015 39.8017 111.108 39.9965C111.202 40.1922 111.343 40.3467 111.532 40.4608C111.719 40.5749 111.988 40.6316 112.336 40.6316C112.564 40.6316 112.799 40.605 113.041 40.5509C113.283 40.4977 113.51 40.417 113.725 40.3089L113.786 41.7394C113.517 41.8613 113.218 41.948 112.89 42.002C112.561 42.0561 112.249 42.0836 111.954 42.0836C111.39 42.0836 110.94 42.0089 110.605 41.8613C110.27 41.7137 110.008 41.5052 109.82 41.2357C109.631 40.968 109.508 40.635 109.447 40.2385C109.387 39.8429 109.357 39.4036 109.357 38.9187V33.7389H107.303V32.4079H109.357V29.7271H110.926V32.4079H113.705V33.7389ZM115.638 26.6043H117.208V33.7183H117.249C117.356 33.5295 117.503 33.3459 117.692 33.1648C117.88 32.9837 118.104 32.819 118.366 32.6705C118.628 32.5229 118.92 32.4019 119.242 32.3075C119.565 32.2131 119.906 32.1668 120.268 32.1668C120.886 32.1668 121.42 32.2612 121.87 32.4491C122.319 32.6371 122.692 32.8997 122.986 33.236C123.281 33.5707 123.5 33.9775 123.64 34.4546C123.782 34.9317 123.852 35.4526 123.852 36.0164V41.8416H122.282V36.1778C122.282 35.3848 122.107 34.7601 121.759 34.3036C121.408 33.847 120.866 33.6171 120.128 33.6171C119.618 33.6171 119.178 33.7055 118.809 33.8805C118.44 34.0556 118.138 34.3036 117.903 34.6262C117.668 34.9489 117.494 35.3316 117.38 35.7753C117.265 36.2181 117.208 36.709 117.208 37.2453V41.8416H115.638V26.6043ZM126.429 34.646C126.429 34.2161 126.414 33.8127 126.388 33.4377C126.361 33.0601 126.347 32.7186 126.347 32.4079H127.838C127.838 32.6637 127.844 32.9194 127.858 33.1751C127.87 33.4308 127.878 33.6926 127.878 33.9603H127.918C128.025 33.7329 128.176 33.5115 128.371 33.2953C128.565 33.0807 128.797 32.8894 129.064 32.7203C129.333 32.5538 129.636 32.4182 129.971 32.317C130.306 32.2174 130.669 32.1668 131.058 32.1668C131.165 32.1668 131.273 32.1737 131.381 32.1874C131.487 32.2003 131.595 32.2277 131.703 32.2681L131.601 33.8599C131.333 33.7793 131.051 33.7389 130.756 33.7389C129.79 33.7389 129.088 34.0521 128.653 34.676C128.217 35.3008 127.998 36.158 127.998 37.2462V41.8416H126.429V34.646ZM132.46 37.1252C132.46 36.3872 132.587 35.7135 132.843 35.1085C133.098 34.5044 133.446 33.9843 133.889 33.5467C134.333 33.1099 134.863 32.7718 135.48 32.5298C136.098 32.2869 136.768 32.1668 137.493 32.1668C138.219 32.1668 138.889 32.2869 139.507 32.5298C140.124 32.7718 140.654 33.1099 141.096 33.5467C141.54 33.9843 141.888 34.5044 142.143 35.1085C142.399 35.7135 142.527 36.3872 142.527 37.1252C142.527 37.8632 142.399 38.536 142.143 39.1418C141.888 39.7451 141.54 40.266 141.096 40.7019C140.654 41.1396 140.124 41.4786 139.507 41.7197C138.889 41.9617 138.219 42.0827 137.493 42.0827C136.768 42.0827 136.098 41.9626 135.48 41.7197C134.863 41.4794 134.333 41.1396 133.889 40.7019C133.446 40.266 133.098 39.7451 132.843 39.141C132.587 38.536 132.46 37.8632 132.46 37.1252ZM134.151 37.1252C134.151 37.6229 134.229 38.082 134.383 38.5051C134.537 38.929 134.763 39.298 135.057 39.6138C135.352 39.9313 135.705 40.1785 136.114 40.3604C136.523 40.5406 136.983 40.6316 137.493 40.6316C138.003 40.6316 138.462 40.5406 138.873 40.3604C139.281 40.1785 139.634 39.9313 139.929 39.6138C140.225 39.298 140.449 38.929 140.604 38.5051C140.758 38.082 140.835 37.622 140.835 37.1252C140.835 36.6283 140.758 36.1675 140.604 35.7444C140.449 35.3205 140.225 34.9515 139.929 34.6357C139.634 34.319 139.281 34.0702 138.873 33.8891C138.462 33.7089 138.003 33.6171 137.493 33.6171C136.983 33.6171 136.523 33.7089 136.114 33.8891C135.705 34.0702 135.352 34.319 135.057 34.6357C134.763 34.9515 134.537 35.3205 134.383 35.7444C134.229 36.1675 134.151 36.6283 134.151 37.126V37.1252ZM144.231 32.4079H145.802V33.7793H145.842C146.271 33.2687 146.771 32.8713 147.343 32.5899C147.913 32.3075 148.539 32.1668 149.225 32.1668C149.963 32.1668 150.637 32.2912 151.248 32.5392C151.858 32.7881 152.378 33.1339 152.807 33.5776C153.237 34.0204 153.573 34.5447 153.814 35.1489C154.057 35.7539 154.178 36.4129 154.178 37.1252C154.178 37.8374 154.057 38.4956 153.814 39.0998C153.573 39.7048 153.242 40.2291 152.817 40.6719C152.395 41.1147 151.895 41.4623 151.318 41.7103C150.741 41.9591 150.123 42.0827 149.465 42.0827C148.621 42.0827 147.879 41.8991 147.242 41.5283C146.604 41.1593 146.137 40.7054 145.842 40.1682H145.802V46.4369H144.231V32.4079ZM145.802 37.1252C145.802 37.6229 145.879 38.082 146.034 38.5051C146.188 38.929 146.412 39.298 146.709 39.6138C147.003 39.9313 147.355 40.1785 147.765 40.3604C148.175 40.5415 148.634 40.6316 149.144 40.6316C149.655 40.6316 150.113 40.5415 150.522 40.3595C150.932 40.1793 151.285 39.9305 151.58 39.6138C151.875 39.298 152.1 38.929 152.254 38.5051C152.409 38.082 152.486 37.622 152.486 37.1252C152.486 36.6283 152.409 36.1675 152.254 35.7444C152.1 35.3213 151.875 34.9515 151.58 34.6357C151.285 34.3199 150.932 34.0702 150.522 33.89C150.113 33.7097 149.655 33.6171 149.144 33.6171C148.634 33.6171 148.175 33.7089 147.765 33.89C147.355 34.0702 147.003 34.3199 146.709 34.6365C146.412 34.9515 146.188 35.3213 146.034 35.7444C145.879 36.1675 145.802 36.6283 145.802 37.126V37.1252ZM160.517 42.0587C160.357 42.462 160.517 42.0587 158.876 46.4635H157.27L158.794 41.9008L154.888 32.4079H156.72L159.64 39.806H159.68L162.478 32.4088H164.189L160.517 42.0587Z" fill="#1C3658"/>
</svg>
