<svg width="102" height="24" viewBox="0 0 102 24" fill="none" xmlns="http://www.w3.org/2000/svg"><path d="M37.8683 8.83845C37.8683 6.9923 37.2683 5.56153 36.0453 4.56922C34.8453 3.55384 33.2991 3.04614 31.4068 3.04614H24.6914V21.1154H28.4299V14.7461H31.2683C33.2529 14.7461 34.8453 14.2385 36.0453 13.2461C37.2683 12.2308 37.8683 10.7538 37.8683 8.83845ZM34.1068 8.93076C34.1068 10.5 32.7683 11.2615 31.1068 11.2615H28.4299V6.57691H31.0837C32.8145 6.57691 34.1068 7.2923 34.1068 8.93076Z" fill="#354051"></path><path d="M39.7383 12.0924C39.7383 14.7001 40.6383 16.8924 42.4614 18.6924C44.2844 20.4924 46.4767 21.3924 49.0844 21.3924C51.6921 21.3924 53.9075 20.4924 55.7306 18.6693C57.5767 16.8462 58.4998 14.6077 58.4998 12.0001C58.4998 9.41544 57.5998 7.22313 55.7767 5.44621C53.9767 3.66929 51.7844 2.76929 49.1767 2.76929C46.5691 2.76929 44.3537 3.66929 42.5075 5.49236C40.6614 7.31544 39.7383 9.50775 39.7383 12.0924ZM45.1844 8.0539C46.2691 6.94621 47.5844 6.39236 49.1306 6.39236C50.6767 6.39236 51.9921 6.94621 53.0767 8.0539C54.1614 9.16159 54.6921 10.5001 54.6921 12.0693C54.6921 13.6385 54.1614 14.977 53.0767 16.1077C51.9921 17.2154 50.6767 17.7693 49.1306 17.7693C47.5844 17.7693 46.2691 17.2154 45.1844 16.1077C44.0998 14.977 43.5691 13.6385 43.5691 12.0693C43.5691 10.5001 44.0998 9.16159 45.1844 8.0539Z" fill="#354051"></path><path d="M67.8914 21.1154L71.8376 8.00768H71.8837L75.8068 21.1154H79.8453L85.1991 3.04614H81.3453L77.7914 15.9692L73.8914 3.04614H69.8991L65.9991 15.8769L62.5607 3.04614H58.5684L63.8761 21.1154H67.8914Z" fill="#354051"></path><path d="M101.353 21.0692L97.2686 14.0077C99.7379 13.1077 100.984 11.3538 100.984 8.72308C100.984 6.9 100.384 5.49231 99.1609 4.5C97.9609 3.50769 96.4379 3 94.5917 3H87.4609V21.0692H91.1994V14.5846H93.4609L97.1994 21.0692H101.353ZM91.1994 6.53077H94.2917C95.9302 6.53077 97.1994 7.2 97.1994 8.79231C97.1994 10.3615 95.884 11.1231 94.3148 11.1231H91.1994V6.53077Z" fill="#354051"></path><path fill-rule="evenodd" clip-rule="evenodd" d="M7.35724 0.00179725C7.45654 -0.0130465 7.54492 0.0659741 7.54492 0.167998V6.4105C7.54492 6.50419 7.61964 6.58015 7.71181 6.58015H9.53372C9.62589 6.58015 9.70061 6.50419 9.70061 6.4105V0.167998C9.70061 0.0659742 9.78899 -0.0130465 9.88828 0.00179729C14.0505 0.624012 17.2455 4.26895 17.2455 8.67236C17.2455 13.4559 13.4752 17.3443 8.79025 17.435C8.69809 17.4368 8.62276 17.5126 8.62276 17.6063V23.4444C8.62276 23.7567 8.37353 24.0109 8.06649 23.9996C5.27938 23.897 2.68506 23.026 0.482398 21.589C0.176286 21.3892 0 21.0404 0 20.6706V8.89279C0 8.89206 0.000584176 8.89147 0.00130479 8.89147C0.00203794 8.89147 0.00262717 8.89085 0.0026093 8.89011C0.00087312 8.81774 0 8.74515 0 8.67236C0 4.26895 3.19498 0.624012 7.35724 0.00179725ZM5.38923 3.27362C5.38923 3.14302 5.25049 3.06205 5.14221 3.13233C4.74831 3.38799 4.3819 3.6869 4.04985 4.0244C3.44933 4.63478 2.97297 5.3594 2.64797 6.1569C2.32297 6.9544 2.15569 7.80915 2.15569 8.67236C2.15569 9.53557 2.32297 10.3903 2.64797 11.1878C2.97297 11.9853 3.44933 12.7099 4.04985 13.3203C4.65037 13.9307 5.3633 14.4149 6.14792 14.7452C6.93254 15.0756 7.77349 15.2456 8.62276 15.2456C9.47203 15.2456 10.313 15.0756 11.0976 14.7452C11.8822 14.4149 12.5951 13.9307 13.1957 13.3203C13.7962 12.71 14.2726 11.9853 14.5976 11.1878C14.9226 10.3903 15.0898 9.53557 15.0898 8.67236C15.0898 7.80916 14.9226 6.9544 14.5976 6.1569C14.2726 5.3594 13.7962 4.63478 13.1957 4.0244C12.8636 3.6869 12.4972 3.38799 12.1033 3.13233C11.995 3.06205 11.8563 3.14302 11.8563 3.27362V5.70972C11.8563 5.75104 11.8712 5.79086 11.8977 5.82225C12.1926 6.1724 12.4319 6.56821 12.606 6.99539C12.8226 7.52706 12.9341 8.09689 12.9341 8.67236C12.9341 9.24783 12.8226 9.81767 12.606 10.3493C12.3893 10.881 12.0717 11.3641 11.6714 11.771C11.271 12.1779 10.7957 12.5007 10.2727 12.7209C9.74957 12.9412 9.18894 13.0545 8.62276 13.0545C8.05658 13.0545 7.49595 12.9412 6.97287 12.7209C6.44979 12.5007 5.9745 12.1779 5.57415 11.771C5.17381 11.3641 4.85623 10.881 4.63956 10.3493C4.4229 9.81767 4.31138 9.24783 4.31138 8.67236C4.31138 8.09689 4.4229 7.52705 4.63957 6.99539C4.81365 6.56821 5.05288 6.17239 5.34784 5.82225C5.37429 5.79086 5.38923 5.75104 5.38923 5.70972V3.27362Z" fill="#3B8CFF"></path></svg>